{"title":"Sherlock.Holmes.A.Game.of.Shadows.2011.BRRIP.720P.H264-ZEKTORM","uid":7210370,"size":3954096852,"categoryP":"video","categoryS":"hd___movies","magnet":"?xt=urn:btih:5f096fec773596a7acfaab1e6d3193695f71e8d2&amp;dn=Sherlock.Holmes.A.Game.of.Shadows.2011.BRRIP.720P.H264-ZEKTORM&amp;tr=udp%3A%2F%2Ftracker.openbittorrent.com%3A80&amp;tr=udp%3A%2F%2Fopen.demonii.com%3A1337&amp;tr=udp%3A%2F%2Ftracker.coppersurfer.tk%3A6969&amp;tr=udp%3A%2F%2Fexodus.desync.com%3A6969","seeders":0,"leechers":1,"uploader":"blowley","files":4,"time":1335219160,"description":"Title                            : Sherlock Holmes: A Game of Shadows\nYear                             : 2011\nGenre                            : Action | Adventure | Crime\niMDB URL                         : http://www.imdb.com/title/tt1515091/\n\nComplete name                    : Sherlock.Holmes.A.Game.of.Shadows.2011.BRRIP.720P.H264-ZEKTORM.mp4\nFormat                           : MPEG-4\nFormat profile                   : Base Media\nCodec ID                         : isom\nFile size                        : 3.68 GiB\nDuration                         : 2h 8mn\nOverall bit rate                 : 4098 Kbps\nSubtitles                        : English (Format: srt)\n\nVideo\nID                               : 1\nFormat                           : AVC\nFormat/Info                      : Advanced Video Codec\nFormat profile                   : &lt;a class=&quot;__cf_email__&quot; href=&quot;/cdn-cgi/l/email-protection&quot; data-cfemail=&quot;bef6d7d9d6fef28a908e&quot;&gt;[email&amp;#160;protected]&lt;/a&gt;&lt;script cf-hash='f9e31' type=&quot;text/javascript&quot;&gt;\n/* &lt;![CDATA[ */!function(){try{var t=&quot;currentScript&quot;in document?document.currentScript:function(){for(var t=document.getElementsByTagName(&quot;script&quot;),e=t.length;e--;)if(t[e].getAttribute(&quot;cf-hash&quot;))return t[e]}();if(t&amp;&amp;t.previousSibling){var e,r,n,i,c=t.previousSibling,a=c.getAttribute(&quot;data-cfemail&quot;);if(a){for(e=&quot;&quot;,r=parseInt(a.substr(0,2),16),n=2;a.length-n;n+=2)i=parseInt(a.substr(n,2),16)^r,e+=String.fromCharCode(i);e=document.createTextNode(e),c.parentNode.replaceChild(e,c)}}}catch(u){}}();/* ]]&gt; */&lt;/script&gt;\nFormat settings, CABAC           : Yes\nFormat settings, ReFrames        : 12 frames\nCodec ID                         : avc1\nCodec ID/Info                    : Advanced Video Coding\nDuration                         : 2h 8mn\nBit rate mode                    : Variable\nBit rate                         : 3649 Kbps\nWidth                            : 1280 pixels\nHeight                           : 528 pixels\nDisplay aspect ratio             : 2.424\nFrame rate mode                  : Constant\nFrame rate                       : 23.976 fps\nResolution                       : 24 bits\nColorimetry                      : 4:2:0\nScan type                        : Progressive\nBits/(Pixel*Frame)               : 0.225\nStream size                      : 3.28 GiB (89%)\nTitle                            : Video\nWriting library                  : x264\n\nAudio\nID                               : 2\nFormat                           : AAC\nFormat/Info                      : Advanced Audio Codec\nFormat version                   : Version 4\nFormat profile                   : LC\nFormat settings, SBR             : No\nCodec ID                         : 40\nDuration                         : 2h 8mn\nBit rate mode                    : Variable\nBit rate                         : 445 Kbps\nMaximum bit rate                 : 531 Kbps\nChannel(s)                       : 6 channels\nChannel positions                : Front: L C R, Rear: L R, LFE\nSampling rate                    : 48.0 KHz\nResolution                       : 16 bits\nStream size                      : 409 MiB (11%)\nLanguage                         : English\n\n\nScreenshots:\n\n[img]http://img534.imageshack.us/img534/5714/snapshagos1.png[/img]\n\n[img]http://img853.imageshack.us/img853/1091/snapshagos2.png[/img]\n","torrent":{"xt":"urn:btih:5f096fec773596a7acfaab1e6d3193695f71e8d2","amp;dn":"Sherlock.Holmes.A.Game.of.Shadows.2011.BRRIP.720P.H264-ZEKTORM","amp;tr":["udp%3A%2F%2Ftracker.openbittorrent.com%3A80","udp%3A%2F%2Fopen.demonii.com%3A1337","udp%3A%2F%2Ftracker.coppersurfer.tk%3A6969","udp%3A%2F%2Fexodus.desync.com%3A6969"],"infoHash":"5f096fec773596a7acfaab1e6d3193695f71e8d2","infoHashBuffer":{"type":"Buffer","data":[95,9,111,236,119,53,150,167,172,250,171,30,109,49,147,105,95,113,232,210]},"announce":[],"urlList":[]}}